<?xml version="1.0" standalone="no"?><!DOCTYPE svg PUBLIC "-//W3C//DTD SVG 1.1//EN" "http://www.w3.org/Graphics/SVG/1.1/DTD/svg11.dtd"><svg t="1572936975094" class="icon" viewBox="0 0 1024 1024" version="1.1" xmlns="http://www.w3.org/2000/svg" p-id="3335" width="32" height="32" xmlns:xlink="http://www.w3.org/1999/xlink"><defs><style type="text/css"></style></defs><path d="M756.908384 67.497277 270.512529 67.497277c-63.274092 0-114.445542 51.17145-114.445542 114.445542l0 658.06775c0 63.179948 51.261501 114.445542 114.445542 114.445542l286.117436 0 57.220213 0 28.612665 0 0-1.101077c93.629447-10.730389 217.245859-122.425284 227.79103-227.7941l1.101077 0L871.354949 181.942819C871.353926 118.668727 820.093449 67.497277 756.908384 67.497277L756.908384 67.497277zM628.155998 897.230782l-14.305821 0L613.850178 782.78524l0-28.612665c0-15.773242 12.8384-28.612665 28.612665-28.612665l28.612665 0 141.589762 0C799.093159 796.451494 692.622242 897.230782 628.155998 897.230782L628.155998 897.230782zM814.128597 668.338674 599.543334 668.338674l0 2.020006c-20.082384 5.222955-35.668361 20.813025-40.898479 40.899502l-2.015913 0 0 14.302751 0 171.670871L270.512529 897.231805c-31.639604 0-57.220213-25.585725-57.220213-57.220213l0-658.06775c0-31.639604 25.580608-57.220213 57.220213-57.220213l486.395856 0c31.639604 0 57.220213 25.580608 57.220213 57.220213L814.128597 668.338674 814.128597 668.338674zM449.334263 525.279445 334.888721 525.279445c-11.82942 0-21.457708 9.632381-21.457708 21.458731 0 11.82942 9.628288 21.462824 21.457708 21.462824l114.445542 0c11.830443 0 21.457708-9.633405 21.457708-21.462824C470.791971 534.817682 461.164706 525.279445 449.334263 525.279445L449.334263 525.279445zM535.167141 525.279445l-14.305821 0c-11.82635 0-21.456684 9.632381-21.456684 21.458731 0 11.82942 9.630335 21.462824 21.456684 21.462824l14.305821 0c11.830443 0 21.461801-9.633405 21.461801-21.462824C556.628942 534.817682 546.997584 525.279445 535.167141 525.279445L535.167141 525.279445zM685.380304 382.222261 342.038562 382.222261c-15.770172 0-28.608571 12.841469-28.608571 28.612665 0 15.774265 12.837376 28.611641 28.608571 28.611641l343.341742 0c15.771195 0 28.608571-12.837376 28.608571-28.611641C713.989899 394.969587 701.152523 382.222261 685.380304 382.222261L685.380304 382.222261zM685.380304 239.168148 342.038562 239.168148c-15.770172 0-28.608571 12.837376-28.608571 28.608571 0 15.774265 12.837376 28.612665 28.608571 28.612665l343.341742 0c15.771195 0 28.608571-12.8384 28.608571-28.612665C713.989899 252.005524 701.152523 239.168148 685.380304 239.168148L685.380304 239.168148zM685.380304 239.168148" p-id="3336" fill="#8590a6"></path></svg>