<?xml version="1.0" standalone="no"?><!DOCTYPE svg PUBLIC "-//W3C//DTD SVG 1.1//EN" "http://www.w3.org/Graphics/SVG/1.1/DTD/svg11.dtd"><svg t="1582105096010" class="icon" viewBox="0 0 1024 1024" version="1.1" xmlns="http://www.w3.org/2000/svg" p-id="10386" xmlns:xlink="http://www.w3.org/1999/xlink" width="32" height="32"><defs><style type="text/css"></style></defs><path d="M531.866 564.902 531.866 698.36l432.299 0 0-28.6c0 0-97.165-54.816-23.782-142.995l23.782 0 0-38.13C964.165 488.635 640.93 433.825 531.866 564.902z" p-id="10387" fill="#2c2c2c"></path><path d="M531.866 283.672l0 250.243c0 0 122.944-150.146 432.299-64.348L827.341 195.494C827.341 195.494 664.738 159.737 531.866 283.672z" p-id="10388" fill="#2c2c2c"></path><path d="M505.104 564.902 505.104 698.36 72.806 698.36l0-28.6c0 0 97.166-54.816 23.796-142.995L72.806 526.765l0-38.13C72.806 488.635 396.034 433.825 505.104 564.902z" p-id="10389" fill="#2c2c2c"></path><path d="M505.104 283.672l0 250.243c0 0-122.944-150.146-432.298-64.348l136.831-274.073C209.637 195.494 372.239 159.737 505.104 283.672z" p-id="10390" fill="#2c2c2c"></path><path d="M53.459 735.896l0 48.262 376.286 0c0 0 38.668 49.455 88.493 49.455l0-35.749c0 0-75.848-15.494-75.848-61.968L53.459 735.896z" p-id="10391" fill="#2c2c2c"></path><path d="M983.017 735.896l0 48.262L606.73 784.158c0 0-38.667 49.455-88.493 49.455l0-35.749c0 0 75.849-15.494 75.849-61.968L983.017 735.896z" p-id="10392" fill="#2c2c2c"></path></svg>