<?xml version="1.0" standalone="no"?><!DOCTYPE svg PUBLIC "-//W3C//DTD SVG 1.1//EN" "http://www.w3.org/Graphics/SVG/1.1/DTD/svg11.dtd"><svg t="1582257607894" class="icon" viewBox="0 0 1211 1024" version="1.1" xmlns="http://www.w3.org/2000/svg" p-id="7409" xmlns:xlink="http://www.w3.org/1999/xlink" width="56.765625" height="48"><defs><style type="text/css"></style></defs><path d="M1121.523805 195.047619 146.285714 195.047619C117.028572 195.047619 97.52381 175.542858 97.52381 146.285714 97.52381 117.028572 117.028572 97.52381 146.285714 97.52381L1072.761903 97.52381 1072.761903 48.761905C1072.761903 19.504762 1053.257142 0 1024 0L146.285714 0C63.390476 0 0 63.390476 0 146.285714L0 828.952381C0 911.847619 63.390476 975.238097 146.285714 975.238097L1121.523805 975.238097C1150.780956 975.238097 1170.285717 955.733336 1170.285717 926.47619L1170.285717 243.809524C1170.285717 214.552381 1150.780956 195.047619 1121.523805 195.047619L1121.523805 195.047619ZM946.712381 654.09219C908.629334 692.224 846.848 692.224 808.764952 654.09219 770.681904 616.009142 770.681904 554.276572 808.764952 516.193524 846.848 478.110476 908.629334 478.110476 946.712381 516.193524 984.795425 554.276572 984.795425 616.009142 946.712381 654.09219L946.712381 654.09219Z" p-id="7410" fill="#8590a6"></path></svg>