<?xml version="1.0" standalone="no"?><!DOCTYPE svg PUBLIC "-//W3C//DTD SVG 1.1//EN" "http://www.w3.org/Graphics/SVG/1.1/DTD/svg11.dtd"><svg t="1582257788853" class="icon" viewBox="0 0 1024 1024" version="1.1" xmlns="http://www.w3.org/2000/svg" p-id="9890" xmlns:xlink="http://www.w3.org/1999/xlink" width="48" height="48"><defs><style type="text/css"></style></defs><path d="M511.6416 51.2a460.4416 460.4416 0 1 0 0 920.832A460.4416 460.4416 0 0 0 511.6416 51.2z m153.7024 578.4576a138.24 138.24 0 0 1-33.2288 42.4448c-13.9264 12.2368-30.6176 22.016-49.4592 29.184-18.432 7.0144-38.8096 10.5472-60.5696 10.5472-30.72 0-56.3712-5.0688-78.592-15.36-22.016-10.2912-40.5504-24.4224-54.9888-41.9328a178.176 178.176 0 0 1-32.9216-62.5664c-7.424-24.7808-11.1616-51.2-11.1616-78.5408v-13.9264c0-27.6992 3.6864-54.0672 10.9568-78.336 7.0144-23.552 18.1248-44.6976 32.9728-62.8736 14.336-17.6128 32.6656-31.744 54.5792-42.0352 21.76-10.24 48.0768-15.4112 78.4384-15.4112 23.3472 0 45.056 3.584 64.4608 10.8544a135.3728 135.3728 0 0 1 80.3328 75.1616c7.3728 17.6128 11.6224 37.0176 12.544 57.4976a27.904 27.904 0 0 1-27.8016 27.3408 27.8016 27.8016 0 0 1-27.648-28.0576 120.832 120.832 0 0 0-8.0384-37.0688 101.2736 101.2736 0 0 0-20.6336-32.768 100.0448 100.0448 0 0 0-31.9488-22.272 101.888 101.888 0 0 0-39.7312-8.0896c-21.6064 0.256-39.936 5.12-54.9376 14.336-15.1552 9.728-27.2384 22.3232-35.8912 37.6832-19.4048 34.1504-21.6064 75.7248-21.6064 104.0384v13.9776c0 19.3024 1.3312 36.7104 4.096 53.0944 3.0208 18.5856 8.8064 35.5328 17.2544 50.432 8.6016 15.2064 20.6848 27.904 35.8912 37.7856 15.0016 9.3184 32.768 14.08 54.4768 14.6944 12.9536 0 25.1904-2.048 36.864-6.0416a102.912 102.912 0 0 0 32.1536-18.2272 89.6 89.6 0 0 0 31.9488-62.9248 28.3648 28.3648 0 0 1 27.7504-28.7744c14.7456 0 26.9824 11.52 27.904 26.2656-1.024 17.5616-5.376 33.6384-13.4656 49.8688z" p-id="9891" fill="#8590a6"></path></svg>