<?xml version="1.0" standalone="no"?><!DOCTYPE svg PUBLIC "-//W3C//DTD SVG 1.1//EN" "http://www.w3.org/Graphics/SVG/1.1/DTD/svg11.dtd"><svg t="1582098335679" class="icon" viewBox="0 0 1024 1024" version="1.1" xmlns="http://www.w3.org/2000/svg" p-id="4333" width="32" height="32" xmlns:xlink="http://www.w3.org/1999/xlink"><defs><style type="text/css"></style></defs><path d="M183.64873 0.00128h655.99918a96.639879 96.639879 0 0 1 97.087879 95.99988v830.718962a97.471878 97.471878 0 0 1-97.087879 97.087878H454.112392a40.12795 40.12795 0 0 1-28.095965-11.711985L98.592837 684.352425a39.74395 39.74395 0 0 1-11.455986-28.095965V96.19316a95.99988 95.99988 0 0 1 96.511879-95.99988z m673.919158 926.782842V96.19316a17.343978 17.343978 0 0 0-17.791978-16.831979H183.64873a16.703979 16.703979 0 0 0-17.087978 16.831979v501.183373h250.303687a96.703879 96.703879 0 0 1 96.959879 96.38388v251.007686h325.887592a18.303977 18.303977 0 0 0 17.791978-17.919978z m-422.975471-19.199976v-213.951733a17.279978 17.279978 0 0 0-17.599978-16.959979H202.848706l231.871711 231.295711z" fill="#8D9DA6" p-id="4334"></path></svg>