<?xml version="1.0" standalone="no"?><!DOCTYPE svg PUBLIC "-//W3C//DTD SVG 1.1//EN" "http://www.w3.org/Graphics/SVG/1.1/DTD/svg11.dtd"><svg t="1582257500752" class="icon" viewBox="0 0 1024 1024" version="1.1" xmlns="http://www.w3.org/2000/svg" p-id="5903" xmlns:xlink="http://www.w3.org/1999/xlink" width="48" height="48"><defs><style type="text/css"></style></defs><path d="M244.7 340.2c0 73.6 39.3 141.6 103 178.4 63.7 36.8 142.3 36.8 206 0 63.7-36.8 103-104.8 103-178.4 0-113.8-92.2-206-206-206s-206 92.2-206 206z m368.1 395.6c0-64.4 31.4-121.4 79.8-156.7v-0.1c-25.1-20-52.8-37-82.5-50.4h-0.1C567 565 511.4 587 450.7 587s-116.3-22-159.3-58.3h-0.1C167.4 584.5 78.1 703.4 64.2 844.5c0 0 0 0.1 0.1 0.1H646c0.1 0 0.1-0.1 0.1-0.1-21-31-33.3-68.4-33.3-108.7z m193.7-152.9c-84.5 0-153 68.5-153 153s68.5 153 153 153 153-68.5 153-153-68.5-153-153-153z m79 175.4H829s-0.1 0-0.1 0.1v56.5c0 11.7-8.7 21.8-20.3 22.9-13.3 1.3-24.6-9.3-24.6-22.3v-57s0-0.1-0.1-0.1h-56.5c-11.7 0-21.8-8.7-22.9-20.3-1.3-13.3 9.3-24.6 22.3-24.6h57s0.1 0 0.1-0.1v-56.5c0-11.7 8.7-21.8 20.3-22.9 13.3-1.3 24.6 9.3 24.6 22.3v57s0 0.1 0.1 0.1h57c13 0 23.6 11.3 22.3 24.6-0.9 11.6-11.1 20.3-22.7 20.3z m0 0" fill="#8590a6" p-id="5904"></path></svg>