<?xml version="1.0" standalone="no"?><!DOCTYPE svg PUBLIC "-//W3C//DTD SVG 1.1//EN" "http://www.w3.org/Graphics/SVG/1.1/DTD/svg11.dtd"><svg t="1582098382347" class="icon" viewBox="0 0 1024 1024" version="1.1" xmlns="http://www.w3.org/2000/svg" p-id="5183" width="32" height="32" xmlns:xlink="http://www.w3.org/1999/xlink"><defs><style type="text/css"></style></defs><path d="M519.314286 197.485714c29.257143 0 51.2 21.942857 51.2 51.2v248.685715l175.542857 175.542857c21.942857 21.942857 21.942857 51.2 0 73.142857-21.942857 21.942857-51.2 21.942857-73.142857 0L490.057143 548.571429l-7.314286-7.314286c0-7.314286-7.314286-14.628571-7.314286-21.942857V248.685714c0-29.257143 21.942857-51.2 43.885715-51.2zM512 0c87.771429 0 175.542857 21.942857 256 65.828571 21.942857 14.628571 29.257143 43.885714 14.628571 65.828572-14.628571 21.942857-43.885714 29.257143-65.828571 14.628571C658.285714 117.028571 585.142857 95.085714 512 95.085714 285.257143 95.085714 95.085714 285.257143 95.085714 512s182.857143 416.914286 416.914286 416.914286c226.742857 0 416.914286-182.857143 416.914286-416.914286 0-65.828571-14.628571-131.657143-51.2-190.171429-7.314286-14.628571-14.628571-29.257143-29.257143-43.885714-14.628571-21.942857-7.314286-51.2 14.628571-65.828571 21.942857-14.628571 51.2-7.314286 65.828572 14.628571 14.628571 14.628571 21.942857 36.571429 36.571428 58.514286 36.571429 58.514286 58.514286 146.285714 58.514286 226.742857 0 65.828571-14.628571 138.971429-43.885714 197.485714-29.257143 58.514286-65.828571 117.028571-109.714286 160.914286-43.885714 43.885714-102.4 80.457143-160.914286 109.714286-58.514286 29.257143-131.657143 43.885714-197.485714 43.885714-65.828571 0-138.971429-14.628571-197.485714-43.885714-58.514286-29.257143-117.028571-65.828571-160.914286-109.714286S73.142857 768 43.885714 709.485714C14.628571 650.971429 0 577.828571 0 512c0-65.828571 14.628571-138.971429 43.885714-197.485714 21.942857-65.828571 58.514286-117.028571 102.4-160.914286C190.171429 109.714286 248.685714 73.142857 307.2 43.885714 373.028571 14.628571 446.171429 0 512 0z" p-id="5184" fill="#8590a6"></path></svg>