<?xml version="1.0" standalone="no"?><!DOCTYPE svg PUBLIC "-//W3C//DTD SVG 1.1//EN" "http://www.w3.org/Graphics/SVG/1.1/DTD/svg11.dtd"><svg t="1572921133507" class="icon" viewBox="0 0 1024 1024" version="1.1" xmlns="http://www.w3.org/2000/svg" p-id="3581" width="32" height="32" xmlns:xlink="http://www.w3.org/1999/xlink"><defs><style type="text/css"></style></defs><path d="M947.525818 771.723636a117.294545 117.294545 0 0 1-52.130909-97.28V439.389091c0-172.218182-128.930909-316.136727-301.335273-351.511273V79.313455C594.059636 35.374545 557.288727 0 512.046545 0s-82.013091 35.560727-82.01309 79.313455v8.378181C257.629091 123.066182 128.512 266.798545 128.512 439.202909v235.147636c0 37.794909-18.059636 71.214545-46.173091 92.997819a343.505455 343.505455 0 0 1-13.684364 9.960727 51.851636 51.851636 0 0 0-22.155636 42.542545c0 29.230545 24.389818 52.875636 54.737455 52.875637h821.434181A53.713455 53.713455 0 0 0 977.501091 819.851636a52.130909 52.130909 0 0 0-25.227636-44.590545c-2.606545-1.303273-3.165091-2.513455-4.654546-3.537455zM514.932364 1024c77.079273 0 139.636364-59.205818 139.636363-132.282182h-279.272727c0 72.890182 62.370909 132.282182 139.636364 132.282182z" p-id="3582" fill="#8590a6"></path></svg>