<?xml version="1.0" standalone="no"?><!DOCTYPE svg PUBLIC "-//W3C//DTD SVG 1.1//EN" "http://www.w3.org/Graphics/SVG/1.1/DTD/svg11.dtd"><svg t="1582105029169" class="icon" viewBox="0 0 1024 1024" version="1.1" xmlns="http://www.w3.org/2000/svg" p-id="9617" xmlns:xlink="http://www.w3.org/1999/xlink" width="32" height="32"><defs><style type="text/css"></style></defs><path d="M586.820267 398.722844l59.676444-65.956977a38.229333 38.229333 0 0 0-2.571378-53.873778 34.588444 34.588444 0 0 0-48.856177 2.446222l-82.295467 90.953956-82.295467-90.953956a34.588444 34.588444 0 0 0-50.119111-1.251555 38.229333 38.229333 0 0 0-1.308444 52.679111l59.676444 65.956977h-86.050133a35.953778 35.953778 0 0 0 0 71.918934h123.357866v70.007466H352.676978a35.953778 35.953778 0 0 0 0 71.918934h123.357866v124.131555a35.953778 35.953778 0 1 0 71.930312 0v-124.131555h123.357866a35.953778 35.953778 0 0 0 0-71.918934H547.965156v-70.007466h123.357866a35.953778 35.953778 0 0 0 0-71.918934h-84.502755zM512 1024C229.228089 1024 0 794.771911 0 512S229.228089 0 512 0s512 229.228089 512 512-229.228089 512-512 512z" p-id="9618"></path></svg>