<?xml version="1.0" standalone="no"?><!DOCTYPE svg PUBLIC "-//W3C//DTD SVG 1.1//EN" "http://www.w3.org/Graphics/SVG/1.1/DTD/svg11.dtd"><svg t="1572920933377" class="icon" viewBox="0 0 1024 1024" version="1.1" xmlns="http://www.w3.org/2000/svg" p-id="2354" width="32" height="32" xmlns:xlink="http://www.w3.org/1999/xlink"><defs><style type="text/css"></style></defs><path d="M926.336 814.784l0.448 81.536a10.368 10.368 0 0 1-15.616 8.96l-79.936-46.72a296.32 296.32 0 0 1-71.488 8.64c-145.92 0-264.32-104.896-264.32-234.24 0-129.408 118.4-234.24 264.32-234.24S1024 503.488 1024 632.96c0 73.344-38.08 138.88-97.664 181.824z m-463.552-50.56a489.28 489.28 0 0 1-138.496-5.568l-132.608 81.216a17.28 17.28 0 0 1-26.24-14.848l0.704-127.872C65.28 633.152 0 530.752 0 415.424 0 221.312 184.832 64 412.928 64c198.208 0 363.776 118.848 403.712 277.44a350.528 350.528 0 0 0-62.08-5.504c-178.624 0-323.392 133.888-323.392 299.072 0 46.272 11.328 90.112 31.616 129.28z" p-id="2355" fill="#8590a6"></path></svg>