<?xml version="1.0" standalone="no"?><!DOCTYPE svg PUBLIC "-//W3C//DTD SVG 1.1//EN" "http://www.w3.org/Graphics/SVG/1.1/DTD/svg11.dtd"><svg t="1582257341699" class="icon" viewBox="0 0 1024 1024" version="1.1" xmlns="http://www.w3.org/2000/svg" p-id="4370" xmlns:xlink="http://www.w3.org/1999/xlink" width="48" height="48"><defs><style type="text/css"></style></defs><path d="M921.6 0h-819.2c-57.6 0-102.4 44.8-102.4 102.4V1024l204.8-204.8h716.8c57.6 0 102.4-44.8 102.4-102.4v-614.4c0-57.6-44.8-102.4-102.4-102.4z m-403.2 678.4h-76.8v-70.4h76.8v70.4z m140.8-326.4c0 19.2-6.4 32-19.2 44.8-19.2 12.8-38.4 19.2-64 19.2h-19.2c-12.8 0-25.6 6.4-25.6 12.8s-6.4 12.8-6.4 12.8v108.8h-76.8v-115.2c0-19.2 0-38.4 6.4-44.8 6.4-12.8 19.2-25.6 32-32 12.8-6.4 25.6-12.8 32-12.8h32c19.2 0 32-12.8 32-38.4v-51.2c0-19.2-12.8-32-38.4-32h-160v-70.4h166.4c25.6 0 44.8 6.4 57.6 12.8 12.8 6.4 25.6 19.2 32 32 6.4 12.8 12.8 25.6 12.8 38.4l6.4 115.2z" fill="#8590a6" p-id="4371"></path></svg>