<?xml version="1.0" standalone="no"?><!DOCTYPE svg PUBLIC "-//W3C//DTD SVG 1.1//EN" "http://www.w3.org/Graphics/SVG/1.1/DTD/svg11.dtd"><svg t="1582104728858" class="icon" viewBox="0 0 1024 1024" version="1.1" xmlns="http://www.w3.org/2000/svg" p-id="3508" xmlns:xlink="http://www.w3.org/1999/xlink" width="32" height="32"><defs><style type="text/css"></style></defs><path d="M413.463273 85.643636h198.656a43.287273 43.287273 0 0 0 43.938909-42.635636 43.287273 43.287273 0 0 0-43.938909-42.682182H413.463273a43.287273 43.287273 0 0 0-43.892364 42.682182 43.287273 43.287273 0 0 0 43.892364 42.635636z m198.656 852.712728H413.463273a44.171636 44.171636 0 0 0-38.027637 21.410909 41.611636 41.611636 0 0 0 0 42.635636c7.866182 13.172364 22.341818 21.317818 38.027637 21.317818h198.656a43.287273 43.287273 0 0 0 43.938909-42.682182 43.287273 43.287273 0 0 0-43.938909-42.635636zM22.807273 397.684364c10.053818 5.818182 22.109091 7.447273 33.419636 4.654545a43.752727 43.752727 0 0 0 26.903273-19.781818l98.676363-166.818909c12.101818-20.433455 4.887273-46.545455-16.151272-58.321455a44.683636 44.683636 0 0 0-60.043637 15.685818L6.609455 339.316364a41.611636 41.611636 0 0 0-4.375273 32.442181 42.821818 42.821818 0 0 0 20.526545 25.879273z m978.990545 228.770909a45.056 45.056 0 0 0-33.373091-4.282182 43.752727 43.752727 0 0 0-26.670545 19.921454l-98.909091 166.30691c-12.101818 20.433455-4.887273 46.545455 16.151273 58.321454a44.683636 44.683636 0 0 0 60.043636-15.685818l98.909091-166.260364a41.611636 41.611636 0 0 0 4.375273-32.442182 42.821818 42.821818 0 0 0-20.48-25.879272z m-918.667636 15.639272a44.218182 44.218182 0 0 0-38.074182-21.364363 44.218182 44.218182 0 0 0-38.074182 21.317818 41.658182 41.658182 0 0 0 0 42.728727l98.909091 166.260364a44.683636 44.683636 0 0 0 60.043636 15.685818 42.077091 42.077091 0 0 0 16.104728-58.321454l-98.909091-166.30691z m858.624-259.537454a44.683636 44.683636 0 0 0 60.043636 15.639273 42.077091 42.077091 0 0 0 16.151273-58.321455l-98.909091-166.772364a44.683636 44.683636 0 0 0-60.043636-15.685818 42.077091 42.077091 0 0 0-16.151273 58.321455l98.909091 166.818909zM506.321455 125.486545c-219.136 0-396.8 172.590545-396.8 385.489455 0 212.945455 177.664 385.536 396.8 385.536s396.8-172.590545 396.8-385.536c0-212.898909-177.664-385.489455-396.8-385.489455z m0 719.592728c-189.905455 0-343.877818-149.550545-343.877819-334.103273 0-184.506182 153.972364-334.103273 343.877819-334.103273s343.877818 149.597091 343.877818 334.103273c0 184.552727-153.972364 334.103273-343.877818 334.103273z" p-id="3509" fill="#2c2c2c"></path></svg>