<?xml version="1.0" standalone="no"?><!DOCTYPE svg PUBLIC "-//W3C//DTD SVG 1.1//EN" "http://www.w3.org/Graphics/SVG/1.1/DTD/svg11.dtd"><svg t="1582257719518" class="icon" viewBox="0 0 1024 1024" version="1.1" xmlns="http://www.w3.org/2000/svg" p-id="9043" xmlns:xlink="http://www.w3.org/1999/xlink" width="48" height="48"><defs><style type="text/css"></style></defs><path d="M883.40648 656.413791l92.959927 55.859976c15.03165 9.01899 15.03165 23.669926 0 32.688916l-442.20621 265.712317c-15.018522 9.01899-39.384237 9.01899-54.415887 0L37.538101 744.949555c-15.03165-9.01899-15.03165-23.669926 0-32.688916L130.484899 656.413791l358.711628 215.891257c6.01266 3.518325 11.933424 5.211847 17.749163 5.054311a38.071429 38.071429 0 0 0 17.486601-5.054311L883.40648 656.413791z m0-223.177341l92.959927 55.859975c15.03165 9.01899 15.03165 23.669926 0 32.688917l-442.20621 265.712317c-15.018522 9.01899-39.384237 9.01899-54.415887 0L37.538101 521.772214c-15.03165-9.01899-15.03165-23.669926 0-32.688917L130.484899 433.23645l357.766406 217.322218c6.065172 4.660468 12.287882 6.997266 18.694385 6.997266 6.419631 0 12.91803-2.336798 19.534581-6.997266L883.40648 433.23645zM534.160197 6.783935l442.20621 265.699189c15.03165 9.01899 15.03165 23.669926 0 32.688916l-442.20621 265.712317c-15.018522 9.01899-39.384237 9.01899-54.415887 0L37.538101 305.158912c-15.03165-9.01899-15.03165-23.669926 0-32.688917L479.74431 6.770807c15.018522-9.01899 39.384237-9.01899 54.415887 0z" p-id="9044" fill="#8590a6"></path></svg>