<?xml version="1.0" standalone="no"?><!DOCTYPE svg PUBLIC "-//W3C//DTD SVG 1.1//EN" "http://www.w3.org/Graphics/SVG/1.1/DTD/svg11.dtd"><svg t="1582097960786" class="icon" viewBox="0 0 1026 1024" version="1.1" xmlns="http://www.w3.org/2000/svg" p-id="3220" xmlns:xlink="http://www.w3.org/1999/xlink" width="32.0625" height="32"><defs><style type="text/css"></style></defs><path d="M945.643 234.058h-34.627c-9.585 0-17.325 8.19-17.325 18.338v-3.938L720.554 431.81v-161.1c0-40.5-31.028-73.35-69.278-73.35H131.819c-38.25 0-69.278 32.828-69.278 73.35v476.73c0 40.477 31.005 73.328 69.278 73.328h519.457c38.25 0 69.278-32.85 69.278-73.328V586.317l173.137 183.33v-3.893c0 10.102 7.74 18.315 17.325 18.315h34.627c9.562 0 17.325-8.213 17.325-18.315v-513.36c0-10.148-7.762-18.338-17.325-18.338zM651.275 505.16l-3.713 3.915 3.713 3.915v234.45H131.818V270.71h519.457v234.45z m242.438 160.762L745.551 509.075l148.162-156.87v313.717z" p-id="3221" fill="#8590a6"></path></svg>