<?xml version="1.0" standalone="no"?><!DOCTYPE svg PUBLIC "-//W3C//DTD SVG 1.1//EN" "http://www.w3.org/Graphics/SVG/1.1/DTD/svg11.dtd"><svg t="1582102510889" class="icon" viewBox="0 0 1026 1024" version="1.1" xmlns="http://www.w3.org/2000/svg" p-id="10581" width="32.0625" height="32" xmlns:xlink="http://www.w3.org/1999/xlink"><defs><style type="text/css"></style></defs><path d="M1026.808 858.347c0 22.06-0.401 40.11-0.401 66.181 0 61.769-91.05 101.477-142.39 75.807-10.027-4.813-27.274-5.615-35.697-41.313-4.011-16.445 8.824-40.912 22.06-51.34 29.28-23.665 78.214-16.044 110.703-2.006v-230.63l-180.895 32.89v233.438c0 60.566-88.642 99.472-139.983 74.203-10.027-4.813-28.478-12.033-35.296-38.906-4.412-16.445 8.022-41.714 21.258-52.143 29.28-22.863 69.79-17.247 107.494 1.604l-0.401-174.477 1.203-77.01c-1.604-18.852 10.83-36.5 29.28-39.709l200.548-36.5c19.654-3.61 38.105 10.028 41.714 30.083 0.803 4.01 0.402 8.022 0 11.631 0.402 12.836 0.803 81.022 0.803 218.197zM649.777 579.184c-2.808-1.204-5.215-2.407-8.022-3.61-3.209-1.605-6.819-2.808-10.028-4.412 83.83-56.154 139.181-150.813 139.181-258.307 0-172.471-142.39-312.454-318.47-312.454-175.28-0.401-318.07 139.582-318.07 312.053 0 107.494 55.35 202.153 139.18 258.307-3.209 1.203-6.418 2.807-9.626 4.01l-18.05 8.424c-6.818 3.61-13.637 7.22-20.055 10.83-5.214 2.807-10.027 6.016-14.84 8.823-7.22 4.412-14.44 9.226-21.258 14.039-4.011 2.807-7.621 5.615-11.23 8.423-7.622 5.615-14.842 11.23-22.061 17.247-2.407 2.005-4.813 4.412-7.22 6.418-8.022 7.22-16.044 14.439-23.264 22.06-0.4 0.401-0.4 0.802-0.802 0.802C60.967 737.617 17.648 822.248 3.61 916.507 1.604 921.72 0.4 927.335 0.4 933.351l0.401 4.011c0 24.467 20.456 44.522 45.324 44.522 25.27 0 43.319-21.258 46.527-44.923 21.66-172.873 168.461-307.24 348.955-312.855 4.01 0 7.62 0.4 11.631 0.4s7.621-0.4 11.632-0.4c56.956 1.604 110.302 16.445 157.631 40.911 5.214 2.407 18.852 4.011 27.275 4.011 24.066 0 38.906-17.648 41.714-39.708-0.401 0.4 5.214-29.681-41.714-50.137z m-196.939-43.319c-125.543 0-227.422-99.873-227.422-223.41 0-123.137 101.879-223.412 227.422-223.412 125.544 0 227.422 99.874 227.422 223.411 0 123.538-101.878 223.411-227.422 223.411z" fill="#8590a6" p-id="10582"></path></svg>